<svg width="24" height="24" viewBox="0 0 24 24" fill="none" xmlns="http://www.w3.org/2000/svg">
<path d="M3.5 22.75H20.5C20.91 22.75 21.25 22.41 21.25 22C21.25 21.59 20.91 21.25 20.5 21.25H3.5C3.09 21.25 2.75 21.59 2.75 22C2.75 22.41 3.09 22.75 3.5 22.75Z" fill="#1D1D1B"/>
<path d="M4.9986 18.2514C5.1886 18.2514 5.3786 18.1814 5.5286 18.0314L19.5286 4.03141C19.8186 3.74141 19.8186 3.26141 19.5286 2.97141C19.2386 2.68141 18.7586 2.68141 18.4686 2.97141L4.4686 16.9714C4.1786 17.2614 4.1786 17.7414 4.4686 18.0314C4.6186 18.1814 4.8086 18.2514 4.9986 18.2514Z" fill="#1D1D1B"/>
<path d="M19 14.52C19.41 14.52 19.75 14.18 19.75 13.77V3.5C19.75 3.09 19.41 2.75 19 2.75H8.73C8.32 2.75 7.98 3.09 7.98 3.5C7.98 3.91 8.32 4.25 8.73 4.25H18.25V13.77C18.25 14.18 18.59 14.52 19 14.52Z" fill="#1D1D1B"/>
</svg>
