<svg width="36" height="35" viewBox="0 0 36 35" fill="none" xmlns="http://www.w3.org/2000/svg">
<path d="M12.7969 1.25782C11.4328 1.53809 10.1391 2.16016 9.2039 2.99414C8.09999 3.97852 8.42343 4.83301 10.3359 5.97461C10.9547 6.34375 11.7211 6.64453 12.5719 6.84961C13.4648 7.06153 14.9906 7.06153 15.8062 6.84961C17.0016 6.53516 17.9086 5.91992 18.3375 5.13379L18.5625 4.73047L18.907 4.81934C20.3836 5.19531 21.2976 6.60352 21.5016 8.79785L21.5578 9.41992L21.2695 9.55664C20.7914 9.78906 20.4328 10.1445 19.8281 11.0059C19.1601 11.9561 18.9211 12.168 18.2742 12.4072C17.332 12.7627 16.9383 13.1045 16.6008 13.8838C16.3406 14.4854 15.9328 15.0527 15.2648 15.7363C14.8219 16.1875 14.6531 16.3242 14.407 16.3857C14.0273 16.4814 13.5492 16.8711 13.3383 17.2539C13.1836 17.5273 13.1836 17.5889 13.1625 20.4189C13.1484 22.0117 13.1273 23.3105 13.1062 23.3105C12.9234 23.3105 11.4117 22.7842 11.3133 22.6885C11.1586 22.5381 11.2008 22.7568 10.6594 19.0313C10.3641 16.9873 10.1742 15.873 10.0898 15.7158C9.92109 15.4014 9.64687 15.1211 9.35156 14.9707C8.97187 14.7861 0.639836 12.7695 0.442961 12.8174C0.133586 12.8926 -0.00703877 13.0977 0.014055 13.4463C0.0281175 13.6924 0.0773362 13.7881 0.21093 13.8838C0.309367 13.9522 2.16562 14.4375 4.57031 15.0322C7.80468 15.8184 8.77499 16.085 8.85937 16.1875C8.94374 16.2832 9.11249 17.2539 9.44999 19.5918C10.0336 23.543 10.0266 23.5361 10.9898 23.96L11.3906 24.1377V27.7129C11.3906 31.582 11.3976 31.6641 11.7844 32.3135L11.9531 32.6006L10.3289 32.6211L8.70468 32.6416L8.53593 32.833C8.31093 33.0928 8.31093 33.4482 8.54296 33.667L8.71171 33.8379H22.2047H35.6976L35.8453 33.6807C35.9508 33.5713 36 33.4346 36 33.25C36 32.8604 35.768 32.6621 35.2687 32.6211L34.882 32.5938L35.1562 32.2588C35.7258 31.5615 36 30.7412 36 29.75C36 28.5674 35.6133 27.6514 34.7695 26.8311C33.4687 25.5596 31.4437 25.2793 29.7914 26.127C29.257 26.4072 28.5117 27.0771 28.2305 27.542C28.118 27.7334 27.9914 27.8906 27.9562 27.8906C27.9281 27.8906 27.5836 27.7949 27.1969 27.6719L26.5008 27.46L30.7828 23.2832C33.7148 20.4258 35.1211 19.0107 35.2336 18.7988C35.4586 18.3818 35.4656 17.6572 35.2477 17.2607C34.9312 16.6797 34.4531 16.3857 33.7078 16.3037L33.293 16.2559L32.8008 15.5996C32.1609 14.7383 31.8375 14.4033 31.3242 14.0479C30.7898 13.6855 30.4523 13.5625 29.6789 13.4395C28.6664 13.2754 28.5047 13.1592 27.9492 12.209C27.4289 11.3135 26.8031 10.9307 25.4953 10.7324C24.9187 10.6436 24.5883 10.4863 24.2578 10.1514C23.9625 9.85059 23.4703 9.54981 23.1187 9.4336C22.8023 9.33789 22.8023 9.31738 22.957 8.33985C23.2664 6.35059 24.1031 5.16797 25.4531 4.83301L25.8398 4.73731L26.0086 5.0791C26.2477 5.56446 26.8805 6.14551 27.4992 6.44629C29.7984 7.56738 33.0891 7.02051 35.2125 5.16113C35.4164 4.9834 35.6273 4.75098 35.6836 4.6416C35.8312 4.36817 35.8172 3.77344 35.6555 3.48633C35.4656 3.1377 34.4601 2.37891 33.6867 1.98926C32.3859 1.34668 31.3383 1.1211 29.8687 1.18262C28.8211 1.22364 28.3359 1.33301 27.5625 1.68848C26.9226 1.98926 26.1844 2.67285 25.9805 3.15821C25.8469 3.46582 25.8328 3.47949 25.425 3.55469C24.1312 3.80078 22.9851 4.64844 22.4156 5.77637L22.1976 6.2002L21.9516 5.71485C21.4312 4.68946 20.2922 3.84863 19.0898 3.58887L18.5695 3.47266L18.3937 3.09668C18.0492 2.37891 17.1492 1.72266 15.9961 1.36719C15.5883 1.23731 15.307 1.20996 14.3789 1.18946C13.6195 1.17579 13.1062 1.19629 12.7969 1.25782ZM15.3844 2.49512C16.2914 2.70703 17.0648 3.20606 17.2687 3.72559C17.4305 4.14942 17.3601 4.42969 16.9805 4.83301C15.968 5.9336 13.5281 6.09766 11.5734 5.20215C11.0391 4.95606 9.91406 4.21094 9.91406 4.09473C9.91406 3.99903 10.6312 3.46582 11.1586 3.17188C11.7211 2.86426 12.3398 2.63184 13.0078 2.48828C13.5562 2.37207 14.85 2.37207 15.3844 2.49512ZM31.7461 2.56348C32.5617 2.78223 33.6656 3.35645 34.2984 3.88965L34.5375 4.08789L34.0875 4.43653C33.532 4.88086 32.407 5.42774 31.6969 5.60547C30.2414 5.96094 28.8211 5.80371 27.8297 5.18848C27.1547 4.76465 26.8945 4.15625 27.1687 3.62988C27.3023 3.38379 27.7664 2.98047 28.132 2.80274C28.7508 2.48828 29.3555 2.39258 30.375 2.41992C30.9586 2.44043 31.4859 2.49512 31.7461 2.56348ZM22.7391 10.623C22.8727 10.6777 23.168 10.8897 23.407 11.1016C23.9766 11.6143 24.4195 11.8125 25.2914 11.9629C26.318 12.1406 26.5922 12.332 27.0352 13.1797C27.4219 13.9385 28.0828 14.417 28.9336 14.5674C29.9812 14.752 30.2555 14.834 30.6 15.0801C30.9164 15.3125 31.6406 16.0986 31.6406 16.2148C31.6406 16.249 28.2375 16.2695 24.082 16.2695H16.5164L16.8609 15.8662C17.2477 15.4219 17.5711 14.8887 17.7609 14.4238C17.9437 13.9658 18.0914 13.8428 18.8648 13.5283C19.4555 13.2822 19.6453 13.166 20.0039 12.8242C20.2359 12.5918 20.6367 12.0996 20.8969 11.7236C21.4383 10.9307 21.6141 10.7529 21.9867 10.6299C22.3312 10.5068 22.4508 10.5068 22.7391 10.623ZM33.7781 17.5684C34.0172 17.6572 34.193 17.9307 34.1367 18.1221C34.0805 18.293 25.193 27.002 25.0734 27.002C25.0312 27.002 22.6266 26.2637 19.7227 25.3682L14.4492 23.7412L14.4281 20.8496C14.4141 17.7188 14.4141 17.7188 14.7867 17.5684C15.0047 17.4863 33.5531 17.4795 33.7781 17.5684ZM17.1773 25.8809C17.4094 25.9492 17.6062 26.0313 17.6203 26.0791C17.6695 26.2021 16.3336 31.3496 16.1789 31.6367C15.5953 32.7373 13.9851 32.9424 13.1555 32.0264C12.6422 31.459 12.6562 31.5889 12.6562 27.8496V24.4863L14.7164 25.1289C15.8414 25.4844 16.9523 25.8193 17.1773 25.8809ZM23.2945 27.7813L27.5695 29.1006L27.5906 29.8457C27.6187 30.7822 27.8016 31.3428 28.3148 32.0742L28.6805 32.6074H22.8937H17.1L17.2969 32.2451C17.4375 31.999 17.7047 31.0967 18.1758 29.2578C18.9211 26.332 18.8859 26.4551 18.9633 26.4551C18.9914 26.4551 20.9461 27.0498 23.2945 27.7813ZM32.5195 26.9678C33.3844 27.1865 34.0734 27.7539 34.4812 28.5742C34.6852 28.9912 34.6992 29.0732 34.6992 29.7705C34.6992 30.4541 34.6852 30.5566 34.5023 30.9121C34.1227 31.6572 33.4266 32.2588 32.632 32.5049C32.3578 32.5938 32.0976 32.6143 31.6406 32.5938C31.1203 32.5732 30.9516 32.5322 30.5437 32.334C29.9601 32.0537 29.4117 31.5342 29.1445 31.0078C28.9547 30.625 28.7578 29.6475 28.8492 29.5518C28.8773 29.5313 29.5101 29.6953 30.2625 29.9277C31.0148 30.1602 31.725 30.3516 31.8445 30.3516C32.3297 30.3516 32.6109 29.6953 32.2734 29.3467C32.1609 29.2236 30.3047 28.5879 29.5172 28.4033C29.4047 28.376 29.3203 28.3145 29.3203 28.2666C29.3203 28.123 29.9461 27.4873 30.2836 27.3027C31.0008 26.8857 31.7601 26.7764 32.5195 26.9678Z" fill="#7A9C52"/>
<path d="M4.00781 32.6553C3.57187 32.8125 3.43828 33.3594 3.76171 33.667C3.93046 33.8379 3.93046 33.8379 5.41406 33.8379C6.79218 33.8379 6.89765 33.8311 7.03125 33.7012C7.34765 33.3936 7.27734 32.9219 6.88359 32.7305C6.67968 32.6279 6.45468 32.6074 5.3789 32.6143C4.68281 32.6143 4.06406 32.6348 4.00781 32.6553Z" fill="#7A9C52"/>
</svg>
