<svg width="36" height="36" viewBox="0 0 36 36" fill="none" xmlns="http://www.w3.org/2000/svg">
<g clip-path="url(#clip0_10_521)">
<path d="M13.7953 0.154686C13.2469 0.457031 12.1219 2.06718 11.3062 3.7125L10.807 4.71094L10.5328 4.20469C9.97031 3.16406 8.90156 1.6875 8.50078 1.39219C8.28984 1.23047 7.84687 1.16016 7.48828 1.22343C7.17188 1.28672 6.85547 1.56094 6.35625 2.2289C4.94297 4.10625 3.83203 6.50391 3.33984 8.75391C3.28359 9.02109 3.22031 9.31641 3.19922 9.39375C3.17109 9.53437 3.11484 9.54844 2.475 9.57656C1.86328 9.59766 1.72266 9.63281 1.31484 9.82969C0.808594 10.0828 0.45 10.4414 0.196875 10.9617L0.0351562 11.2852V22.8164V34.3477L0.203906 34.6641C0.428906 35.093 0.878906 35.55 1.30078 35.775L1.65234 35.9648L17.332 35.9859C34.5305 36 33.2789 36.0352 34.1367 35.5992C34.5867 35.3672 35.3672 34.5867 35.5922 34.1367C36.0281 33.2859 36 34.1437 36 21.3047C36 10.7859 35.9859 9.54844 35.8875 9.20391C35.4727 7.79766 34.3125 6.79219 32.8852 6.60937C31.0008 6.37031 29.3203 7.53047 28.8562 9.38672L28.8141 9.5625H24.0117C19.4906 9.5625 19.2023 9.55547 19.1672 9.43594C19.1531 9.37266 19.118 9.12656 19.0898 8.89453C18.907 7.26328 18.232 5.13281 17.3531 3.42422C16.6148 1.98281 15.3773 0.28125 14.9344 0.0984344C14.5828 -0.049221 14.1258 -0.0210953 13.7953 0.154686ZM15.3422 2.56641C16.5305 4.32422 17.3531 6.37734 17.7609 8.61328C17.9367 9.59063 17.9719 11.6648 17.8242 12.6562C17.5078 14.8359 16.5445 16.3125 15.2437 16.6289L15.0469 16.6781V15.4477C15.0469 14.2242 15.0469 14.2102 14.8641 13.9992C14.625 13.7109 14.2172 13.6898 13.957 13.957C13.7812 14.1258 13.7812 14.1398 13.7812 15.3984C13.7812 16.5797 13.7742 16.6641 13.6547 16.6641C13.4227 16.6641 12.6984 16.2563 12.4242 15.975L12.15 15.7008L12.3328 14.8922C12.825 12.6984 12.6984 10.0547 11.9812 7.69219C11.8477 7.22812 11.693 6.73594 11.6508 6.59531C11.5805 6.36328 11.6016 6.27187 11.8477 5.64609C12.382 4.28203 13.0781 3.03047 13.95 1.84922L14.3789 1.26562L14.5758 1.49765C14.6812 1.61719 15.0258 2.10234 15.3422 2.56641ZM8.31797 3.14297C9.83672 5.19609 10.8422 7.60078 11.2219 10.0898C11.3555 11.018 11.3766 12.9375 11.257 13.7461C10.9477 15.7641 10.2234 17.1 9.12656 17.6484C8.41641 18 8.4375 18.0211 8.4375 16.8539V15.8555L9.31641 14.9766C10.1531 14.1398 10.1953 14.0836 10.1953 13.8094C10.1953 13.6055 10.1531 13.4859 10.0406 13.3805C9.62578 13.0008 9.37266 13.1063 8.49375 13.9781L7.80469 14.6531L7.11562 13.9781C6.34219 13.2117 6.14531 13.1063 5.78672 13.2258C5.5125 13.3172 5.31562 13.6688 5.37891 13.943C5.40703 14.0344 5.81484 14.4984 6.3 14.9836L7.17188 15.8555V16.8539C7.17188 18.0211 7.19297 18 6.48281 17.6484C5.42812 17.1141 4.69688 15.8555 4.38047 13.9922C4.22578 13.0852 4.23281 11.1867 4.3875 10.1602C4.725 8.01562 5.49844 5.88515 6.57422 4.18359C7.05234 3.42422 7.71328 2.53125 7.79766 2.53125C7.83281 2.53125 8.06484 2.80547 8.31797 3.14297ZM33.2156 7.99453C33.7219 8.17031 34.207 8.61328 34.5094 9.17578L34.6992 9.52734L34.7203 19.5609L34.7344 29.5945L34.3898 29.3555C33.6797 28.8844 32.6812 28.6734 31.7953 28.8281C31.3312 28.9055 30.5578 29.2289 30.1781 29.5031L30.0234 29.6227L30.0375 19.6453L30.0586 9.66797L30.2414 9.27422C30.7898 8.1 32.0203 7.57266 33.2156 7.99453ZM2.99531 12.15C3.00937 14.9062 3.57187 16.7203 4.78125 17.9367C5.43516 18.5977 6.11016 18.9703 6.98203 19.1602L7.17188 19.1953V22.3313V25.4602L7.34766 25.6289C7.55859 25.8469 7.99453 25.868 8.23359 25.6711L8.40234 25.5375L8.42344 22.3664L8.44453 19.1953L8.63437 19.1531C9.71016 18.9141 10.7859 18.1969 11.3344 17.3602C11.4539 17.1703 11.5664 17.0156 11.5805 17.0156C11.5875 17.0156 11.7562 17.1281 11.9461 17.2617C12.3328 17.543 12.9234 17.8172 13.2891 17.8875C13.8375 18 13.7812 17.6484 13.7812 21.1359V24.2648L13.957 24.4336C14.0766 24.5602 14.2031 24.6094 14.4 24.6094C14.6391 24.6094 14.7094 24.5742 14.9906 24.307C14.9977 24.3 15.0258 22.8727 15.0469 21.1359L15.082 17.9789L15.4547 17.8945C16.4742 17.6625 17.543 16.8469 18.1266 15.8484C18.6961 14.8852 19.0969 13.4578 19.1672 12.1078C19.1883 11.7352 19.2164 11.2922 19.2375 11.1234L19.2727 10.8281H20.1164H20.9531V18.4148C20.9531 23.625 20.932 26.0719 20.8758 26.2055C20.7844 26.4516 20.5594 26.6977 20.2852 26.8453C20.1023 26.9508 19.6734 26.9719 16.9453 27.007C13.5 27.0492 13.5 27.0492 12.4594 27.5344C11.1797 28.118 10.118 29.1867 9.52031 30.4805C9.10547 31.3734 9 31.9852 9 33.4477V34.7344H5.52656H2.06016L1.82109 34.5727C1.69453 34.4883 1.51172 34.3055 1.42734 34.1789L1.26562 33.9398L1.27969 22.7531L1.30078 11.5664L1.46953 11.3273C1.6875 11.018 2.11641 10.8281 2.60156 10.8281H2.98828L2.99531 12.15ZM25.1719 18.4922C25.1719 27.1617 25.193 26.7609 24.6305 27.9141C24.1875 28.8211 23.4352 29.5875 22.5703 30.0094C21.5016 30.5367 21.4945 30.5367 18.0352 30.5789C14.9695 30.6211 14.9414 30.6211 14.5687 30.7898C14.1047 31.0008 13.493 31.6477 13.3242 32.1117C13.2258 32.3648 13.1906 32.7375 13.1625 33.5883L13.1344 34.7344H11.7H10.2656V33.518C10.2656 32.1328 10.3641 31.6266 10.8141 30.7617C11.1586 30.0867 12.0867 29.1586 12.7617 28.8141C13.7672 28.2937 13.9711 28.2656 17.0156 28.2656C19.8281 28.2656 20.4187 28.2234 20.8969 27.9773C21.3328 27.7523 21.7758 27.3023 21.9867 26.8664L22.1836 26.4727L22.2047 18.6469L22.2188 10.8281H23.6953H25.1719V18.4922ZM28.7719 21.9867L28.793 33.1523L28.9617 33.5953C29.0531 33.8414 29.2289 34.2 29.3555 34.3898L29.5945 34.7344H22.0008H14.4141V33.8344C14.4141 33.3422 14.4492 32.8289 14.4844 32.6812C14.5617 32.4 15.0187 31.95 15.2719 31.8867C15.3633 31.8727 16.7625 31.8445 18.3867 31.8305C21.6844 31.8023 21.8672 31.7812 22.9711 31.2539C24.7852 30.3961 26.0508 28.7086 26.3672 26.7188C26.4094 26.4305 26.4375 23.4703 26.4375 18.5414V10.8281H27.5977H28.7578L28.7719 21.9867ZM33.3703 30.2625C33.8273 30.4734 34.2984 30.9375 34.5305 31.3945C34.6711 31.6969 34.6992 31.8445 34.6992 32.4141C34.6992 32.9977 34.6711 33.1242 34.5094 33.4336C34.2844 33.8555 33.8273 34.3055 33.3984 34.5305C33.1312 34.6711 32.9766 34.6992 32.4141 34.6992C31.8445 34.6992 31.6969 34.6711 31.3945 34.5305C30.2484 33.9609 29.7352 32.5898 30.2555 31.4648C30.5789 30.7687 31.1695 30.2836 31.9008 30.0937C32.2945 29.9953 32.9484 30.0727 33.3703 30.2625Z" fill="#7A9C52"/>
<path d="M2.70704 30.0375C2.4047 30.1992 2.39064 30.2695 2.39064 31.7953C2.39064 33.7641 2.24298 33.6094 4.19767 33.6094C5.23829 33.6024 5.69532 33.5813 5.77267 33.518C6.08204 33.2789 6.11017 32.7727 5.82892 32.5125C5.70235 32.4 5.54064 32.3789 4.66876 32.3578L3.65626 32.3367V31.4227C3.65626 30.7336 3.62814 30.4594 3.55079 30.2977C3.38907 29.9883 3.00939 29.8688 2.70704 30.0375Z" fill="#7A9C52"/>
</g>
<defs>
<clipPath id="clip0_10_521">
<rect width="36" height="36" fill="white"/>
</clipPath>
</defs>
</svg>
