<svg width="35" height="36" viewBox="0 0 35 36" fill="none" xmlns="http://www.w3.org/2000/svg">
<g clip-path="url(#clip0_10_511)">
<path d="M22.8525 0.112507C22.4424 0.267195 21.9844 0.717196 21.7588 1.18126C21.5674 1.58204 21.5674 1.58907 21.5469 3.24845C21.5264 4.85157 21.5195 4.91485 21.3828 4.96407C21.1641 5.03438 20.7129 5.48438 20.5557 5.79376C20.4326 6.03282 20.4053 6.23673 20.3848 6.96095L20.3574 7.83282L19.9268 8.31095C19.4141 8.88048 18.9834 9.6961 18.7988 10.4484C18.6416 11.0602 18.6143 12.1289 18.7373 12.825L18.8057 13.2539L15.5244 21.2274C13.3643 26.4656 12.2363 29.2852 12.2363 29.4399C12.2363 29.9391 12.8174 30.2063 13.207 29.8899C13.3096 29.8055 13.501 29.4399 13.6992 28.9547L14.0205 28.1531L15.7773 27.3867C17.4727 26.6414 17.5479 26.5992 17.9512 26.1914L18.3682 25.7695L20.3096 21.2484L22.251 16.7344L22.5928 16.7836C23.0371 16.8539 24.2061 16.8539 24.6436 16.7836L24.9854 16.7274L26.9336 21.2484L28.8818 25.7695L29.292 26.1914C29.6885 26.5992 29.7568 26.6344 31.459 27.3797L33.2158 28.1461L33.5371 28.9266C33.7148 29.3555 33.9336 29.7774 34.0225 29.8688C34.3984 30.2203 35 29.9531 35 29.4258C35 29.243 34.0225 26.782 31.7119 21.1781L28.4238 13.1836L28.499 12.7969C28.6357 12.0656 28.6494 11.7563 28.5742 11.1516C28.4375 10.0336 27.9932 9.04923 27.2686 8.26173L26.8789 7.83985L26.8516 6.96095C26.8311 6.23673 26.8037 6.03282 26.6807 5.79376C26.5098 5.45626 26.1611 5.09767 25.9014 4.97813L25.71 4.89376L25.6895 3.19923C25.6689 1.52579 25.6689 1.51173 25.4844 1.16016C25.2588 0.717196 24.8691 0.330477 24.4727 0.147663C24.0967 -0.0281181 23.29 -0.042181 22.8525 0.112507ZM24.0898 1.41329C24.4453 1.70157 24.4727 1.8422 24.4727 3.37501V4.78126H23.6182H22.7637V3.41017C22.7637 1.90548 22.8047 1.68751 23.1396 1.42032C23.3926 1.21642 23.8438 1.20938 24.0898 1.41329ZM25.3271 6.08907C25.5938 6.19454 25.6348 6.46173 25.6348 8.14923C25.6348 9.75938 25.6348 9.76641 25.4707 9.96329L25.3066 10.1602L23.7686 10.1813C22.0664 10.2094 21.7998 10.1602 21.6699 9.8086C21.6289 9.70313 21.6016 8.92266 21.6016 8.05079V6.48282L21.7793 6.26485L21.957 6.04688H23.584C24.4795 6.04688 25.2656 6.06798 25.3271 6.08907ZM20.5762 10.4063C20.624 10.5047 20.7402 10.6875 20.8359 10.8211C21 11.0461 21.0137 11.1234 21.0137 11.8406C21.0205 12.5578 21.0342 12.6563 21.2188 13.043C21.3281 13.275 21.5605 13.6055 21.7314 13.7813C21.9092 13.9641 22.2305 14.1961 22.4561 14.3156C22.832 14.5055 22.9277 14.5195 23.6182 14.5195C24.2881 14.5195 24.4111 14.4984 24.7598 14.3297C25.2656 14.0906 25.7988 13.5422 26.0312 13.0219C26.1953 12.6633 26.2158 12.5297 26.2227 11.8336C26.2295 11.0602 26.2295 11.0461 26.4482 10.7789C26.5713 10.6313 26.7012 10.3781 26.749 10.2094C26.79 10.0477 26.8516 9.91407 26.8789 9.91407C26.9131 9.91407 26.9951 10.0477 27.0635 10.2094C27.5693 11.4328 27.4189 12.8672 26.667 13.9641C25.8604 15.1453 24.4453 15.7711 23.0713 15.5531C21.6152 15.3211 20.3711 14.1609 19.9951 12.6844C19.79 11.8758 19.8994 10.8 20.248 10.1039L20.3984 9.8086L20.4395 10.0195C20.4668 10.132 20.5215 10.3078 20.5762 10.4063ZM25.0195 11.8336C25.0195 12.6352 24.4727 13.2258 23.7002 13.275C23.3516 13.2961 23.2217 13.268 22.9688 13.1344C22.5586 12.9024 22.2783 12.4805 22.2305 12.0305C22.1758 11.4328 22.1006 11.4609 23.6523 11.4609H25.0195V11.8336ZM20.0088 15.2578C20.2549 15.532 20.6035 15.8484 20.7881 15.975C21.1162 16.193 21.1162 16.193 21.0273 16.4109C20.9795 16.5305 20.1182 18.5274 19.1133 20.8547C17.6914 24.1524 17.2471 25.1227 17.0693 25.2914C16.7891 25.5727 14.7314 26.4867 14.793 26.3109C14.8955 26.0297 19.5166 14.7727 19.5371 14.7656C19.5439 14.7656 19.7559 14.9906 20.0088 15.2578ZM30.1191 20.5945C32.457 26.2828 32.5117 26.4305 32.3066 26.3391C30.9121 25.7344 30.3516 25.4602 30.167 25.2774C29.9961 25.1156 29.5381 24.1102 28.041 20.6367L26.1338 16.207L26.4688 15.975C26.8174 15.7359 27.6172 14.9274 27.6172 14.8219C27.6172 14.7938 27.6377 14.7656 27.6719 14.7656C27.6992 14.7656 28.7998 17.3883 30.1191 20.5945Z" fill="#7A9C52"/>
<path d="M10.5549 2.52421C10.0285 2.7703 8.91423 4.38046 8.10075 6.06093L7.60173 7.09452L7.24626 6.44765C6.52849 5.1539 5.66716 3.97968 5.25017 3.74062C4.60759 3.38202 4.04021 3.59296 3.40447 4.43671C1.55876 6.86952 0.410325 9.80155 0.0616924 12.9305C-0.0545186 14.0133 0.0206767 16.2281 0.198411 17.107C0.697434 19.4695 1.757 20.8758 3.45915 21.4312L4.03337 21.6211V23.4633V25.3125L3.71208 25.4812C3.52751 25.5726 3.10368 25.8398 2.76189 26.0719C0.294114 27.7383 -0.13655 29.9391 1.63396 31.7883C3.54118 33.7641 7.56071 35.1562 13.2619 35.8031C14.8683 35.9789 19.0314 36.0562 20.7541 35.9367C26.0793 35.557 30.3586 34.425 32.8605 32.7234C33.5441 32.2523 33.7697 31.9922 33.7697 31.6687C33.7697 31.0922 33.134 30.8812 32.6349 31.2961C31.0217 32.625 27.8634 33.7289 24.0285 34.3055C21.7384 34.65 21.0275 34.6922 17.842 34.6992C14.7384 34.6992 14.2394 34.6711 12.0314 34.3758C7.75212 33.8062 4.14958 32.4914 2.60466 30.9375C1.81169 30.143 1.61345 29.4187 1.97575 28.6523C2.18767 28.2094 2.98747 27.4008 3.56169 27.0492L3.99919 26.7891L4.03337 27.2953C4.07439 27.893 4.16325 28.0828 4.42986 28.1812C4.68962 28.2726 4.94939 28.2164 5.12029 28.0266C5.24333 27.893 5.26384 27.7664 5.27751 27.007L5.29802 26.1351L6.04997 25.8609C7.10954 25.4672 8.28532 25.1297 9.37907 24.8836C9.89861 24.7711 10.3498 24.6797 10.384 24.6797C10.4181 24.6797 10.4592 25.1367 10.4728 25.7062C10.4933 26.6836 10.5002 26.7398 10.6574 26.8664C10.8898 27.0633 11.3136 27.0422 11.5187 26.8242C11.6828 26.6555 11.6896 26.6273 11.6896 25.5586C11.6896 24.9609 11.7101 24.4687 11.7443 24.4687C11.9631 24.4617 12.7834 24.3141 12.9269 24.2508C13.3029 24.0961 13.3644 23.5828 13.0568 23.2594C12.8517 23.0555 12.8312 23.0484 12.3869 23.0906C12.134 23.1187 11.8742 23.1609 11.8127 23.175C11.6965 23.2101 11.6896 23.1117 11.6896 21.8109V20.4117L12.1203 20.2922C12.8039 20.0953 13.3986 19.7578 13.8908 19.2797C14.7795 18.4148 15.3127 17.2687 15.5861 15.6164C16.215 11.9039 15.2443 7.61483 13.0226 4.21874C12.3322 3.15702 11.8742 2.61562 11.5734 2.48905C11.2658 2.35546 10.8898 2.36952 10.5549 2.52421ZM11.5734 4.33124C12.1818 5.16093 12.8107 6.26483 13.2345 7.24921C15.2853 11.9601 14.8547 17.557 12.3527 18.8437C11.6554 19.2023 11.6896 19.2516 11.6896 17.7891C11.6896 16.5305 11.6896 16.5164 11.5187 16.3476C11.2795 16.0945 10.9172 16.1086 10.6574 16.3758L10.4592 16.5797V17.8172C10.4592 18.9703 10.4523 19.0547 10.3361 19.0547C10.1105 19.0547 9.40642 18.6469 9.13982 18.3656L8.88005 18.0914L8.98259 17.7117C9.26286 16.6922 9.32439 16.0875 9.33122 14.5195C9.33122 12.5016 9.13298 11.2359 8.53825 9.4289L8.32634 8.78202L8.58611 8.09999C8.92107 7.19296 9.50212 6.00468 9.96013 5.27343C10.4592 4.48593 11.006 3.72655 11.0744 3.72655C11.1086 3.72655 11.3342 4.00077 11.5734 4.33124ZM5.12712 5.48437C7.13005 8.1914 8.25114 11.7492 8.10759 14.9836C7.98454 17.9016 7.13005 19.6383 5.52361 20.2219L5.26384 20.3133V19.3148V18.3164L6.08415 17.4726C6.52849 17.0156 6.93181 16.5516 6.97966 16.4391C7.15056 16.0101 6.87029 15.6094 6.40544 15.6094C6.12517 15.6094 6.08415 15.6375 5.40056 16.3476L4.68962 17.0859L3.95818 16.3476C3.25408 15.6234 3.22673 15.6094 2.91911 15.6094C2.66618 15.6094 2.58415 15.6445 2.46794 15.7922C2.38591 15.9047 2.32439 16.0805 2.32439 16.2281C2.32439 16.4531 2.40642 16.5656 3.17888 17.3672L4.03337 18.2531V19.2516C4.03337 20.3976 4.05388 20.3695 3.43181 20.0742C2.98747 19.8633 2.35857 19.2305 2.07146 18.7031C1.53142 17.7328 1.23064 16.2422 1.23064 14.5687C1.23064 11.9531 1.9279 9.3164 3.23357 7.00311C3.6574 6.2578 4.57341 4.92187 4.66228 4.92187C4.68962 4.92187 4.90154 5.17499 5.12712 5.48437ZM8.68181 19.6523C9.07146 19.9476 9.60466 20.1937 10.1037 20.3203L10.4592 20.4047V21.8953V23.3859L9.73454 23.5055C8.79118 23.6742 7.14372 24.1101 6.11833 24.4687C5.674 24.6234 5.29802 24.75 5.28435 24.75C5.27068 24.75 5.26384 24.0398 5.26384 23.175V21.6L5.62615 21.5156C6.50798 21.2976 7.424 20.693 7.95036 19.9687C8.1281 19.7297 8.27165 19.5047 8.27165 19.4695C8.27165 19.3641 8.34001 19.3922 8.68181 19.6523Z" fill="#7A9C52"/>
<path d="M30.9668 29.5734C29.6065 30.5719 26.7832 31.4789 23.584 31.95C21.5264 32.2594 20.7539 32.3015 17.4932 32.3086C14.0547 32.3086 14.1436 32.3015 14.0069 32.6883C13.9043 32.9484 14.0547 33.307 14.3076 33.4476C14.4922 33.5461 14.8819 33.5672 16.9532 33.5953C20.8018 33.6445 23.4405 33.4054 26.4073 32.7234C28.875 32.1609 31.1514 31.2047 31.9922 30.382C32.3272 30.0515 32.3682 29.7 32.0948 29.4258C31.8282 29.1445 31.5 29.1867 30.9668 29.5734Z" fill="#7A9C52"/>
<path d="M9.5977 31.6406C9.22173 31.7953 9.10552 32.3648 9.38579 32.6531C9.50884 32.7797 9.72759 32.85 10.3497 32.9695C11.5665 33.2086 11.8604 33.2297 12.0655 33.0891C12.3116 32.9273 12.3936 32.6602 12.3047 32.3719C12.2637 32.2453 12.1885 32.1047 12.1338 32.0625C12.0586 31.9992 9.91899 31.5562 9.77544 31.5773C9.75493 31.5773 9.6729 31.6055 9.5977 31.6406Z" fill="#7A9C52"/>
</g>
<defs>
<clipPath id="clip0_10_511">
<rect width="35" height="36" fill="white"/>
</clipPath>
</defs>
</svg>
