<svg width="199" height="61" viewBox="0 0 199 61" fill="none" xmlns="http://www.w3.org/2000/svg">
<g clip-path="url(#clip0_18_22)">
<path d="M55.0687 41.8219H53.1584V29.3245H46.3481V41.8219H44.4378V27.7771H55.0706V41.8219H55.0687ZM68.9845 37.9347H62.9865L61.5631 41.8219H59.713L65.0811 27.7771H67.0534L72.4216 41.8219H70.4078L68.9845 37.9347ZM63.5562 36.3667H68.4147L65.9742 29.7913L63.5562 36.3667ZM78.978 41.8219H77.0677V27.7771H81.9055C83.4643 27.7771 84.6639 28.1649 85.5043 28.9367C86.3448 29.7104 86.766 30.8022 86.766 32.214C86.766 33.6108 86.3467 34.7045 85.5043 35.4913C84.6639 36.2782 83.4643 36.6716 81.9055 36.6716H78.978V41.8219ZM78.978 35.064H81.8454C82.8212 35.064 83.5658 34.8362 84.081 34.3826C84.5962 33.9289 84.8538 33.2061 84.8538 32.2159C84.8538 31.2257 84.5999 30.5067 84.0904 30.0586C83.5827 29.6106 82.8325 29.3866 81.8435 29.3866H78.9761V35.064H78.978ZM92.1811 27.7771H94.0914V33.944H94.9864C95.4753 33.944 95.8852 33.9195 96.2161 33.8724C96.5489 33.8254 96.8328 33.7331 97.0698 33.5976C97.3067 33.4621 97.5097 33.2795 97.679 33.0479C97.8482 32.8164 98.0155 32.519 98.1772 32.1519L100.088 27.7753H102.182L99.8243 32.8032C99.5949 33.2908 99.3467 33.6748 99.0816 33.9534C98.8165 34.232 98.4687 34.4447 98.0343 34.5953C98.5232 34.7591 98.9256 34.9981 99.2433 35.3181C99.5611 35.6363 99.8563 36.0749 100.127 36.6302L102.586 41.82H100.351L98.3991 37.4039C98.2224 37.0236 98.0475 36.7055 97.8708 36.4476C97.694 36.1897 97.4872 35.9902 97.2503 35.8471C97.0133 35.704 96.7276 35.6024 96.3966 35.5421C96.0638 35.4819 95.669 35.4499 95.2064 35.4499H94.0877V41.82H92.1773V27.7771H92.1811ZM108.173 34.8005C108.173 36.5775 108.583 37.9554 109.402 38.9324C110.222 39.9094 111.35 40.3969 112.787 40.3969C114.223 40.3969 115.351 39.9075 116.171 38.9324C116.991 37.9554 117.401 36.5775 117.401 34.8005C117.401 33.0235 116.991 31.6455 116.171 30.6685C115.351 29.6916 114.223 29.2021 112.787 29.2021C111.35 29.2021 110.222 29.6916 109.402 30.6685C108.583 31.6455 108.173 33.0216 108.173 34.8005ZM106.18 34.8005C106.18 33.688 106.336 32.6771 106.648 31.7679C106.96 30.8587 107.404 30.0888 107.979 29.4581C108.554 28.8275 109.25 28.3381 110.062 27.9936C110.875 27.6473 111.783 27.4741 112.787 27.4741C113.789 27.4741 114.697 27.6473 115.511 27.9936C116.324 28.34 117.019 28.8275 117.595 29.4581C118.17 30.0888 118.614 30.8587 118.926 31.7679C119.238 32.6771 119.394 33.688 119.394 34.8005C119.394 35.9262 119.238 36.9408 118.926 37.8425C118.614 38.7442 118.17 39.5122 117.595 40.1428C117.019 40.7734 116.324 41.2628 115.511 41.6092C114.697 41.9556 113.791 42.1288 112.787 42.1288C111.785 42.1288 110.876 41.9556 110.062 41.6092C109.248 41.2628 108.554 40.7753 107.979 40.1428C107.404 39.5122 106.96 38.7442 106.648 37.8425C106.336 36.9408 106.18 35.9262 106.18 34.8005ZM135.12 40.7433C134.632 41.1631 134.03 41.5 133.312 41.7504C132.593 42.0007 131.766 42.1269 130.832 42.1269C129.707 42.1269 128.731 41.933 127.904 41.5471C127.077 41.1612 126.388 40.6341 125.841 39.9696C125.292 39.3051 124.886 38.5239 124.621 37.6298C124.356 36.7337 124.224 35.7774 124.224 34.7591C124.224 33.6051 124.384 32.5773 124.702 31.6756C125.02 30.774 125.475 30.0097 126.065 29.3866C126.655 28.7617 127.362 28.2873 128.19 27.9616C129.017 27.636 129.938 27.4722 130.954 27.4722C131.807 27.4722 132.571 27.5833 133.242 27.8073C133.913 28.0313 134.492 28.34 134.979 28.7334L134.105 30.1584C133.671 29.8459 133.21 29.6087 132.723 29.4469C132.234 29.285 131.672 29.2021 131.036 29.2021C129.519 29.2021 128.336 29.684 127.488 30.6478C126.64 31.6116 126.217 32.9877 126.217 34.7798C126.217 36.585 126.64 37.9724 127.488 38.9418C128.335 39.9113 129.483 40.3969 130.935 40.3969C131.599 40.3969 132.206 40.3047 132.755 40.1221C133.304 39.9395 133.795 39.6703 134.229 39.3183L135.12 40.7433ZM145.622 29.3847V41.8219H143.711V29.3847H138.892V27.7771H150.399V29.3847H145.622ZM157.119 41.8219H155.209V27.7771H160.047C161.606 27.7771 162.805 28.1649 163.646 28.9367C164.486 29.7104 164.905 30.8022 164.905 32.214C164.905 33.6108 164.486 34.7045 163.646 35.4913C162.805 36.2782 161.606 36.6716 160.047 36.6716H157.119V41.8219ZM157.119 35.064H159.987C160.963 35.064 161.707 34.8362 162.222 34.3826C162.737 33.9289 162.995 33.2061 162.995 32.2159C162.995 31.2257 162.741 30.5067 162.232 30.0586C161.724 29.6106 160.976 29.3866 159.985 29.3866H157.117V35.064H157.119ZM171.402 34.8005C171.402 36.5775 171.812 37.9554 172.631 38.9324C173.451 39.9094 174.579 40.3969 176.016 40.3969C177.452 40.3969 178.58 39.9075 179.4 38.9324C180.22 37.9554 180.63 36.5775 180.63 34.8005C180.63 33.0235 180.22 31.6455 179.4 30.6685C178.58 29.6916 177.452 29.2021 176.016 29.2021C174.579 29.2021 173.451 29.6916 172.631 30.6685C171.812 31.6455 171.402 33.0216 171.402 34.8005ZM169.409 34.8005C169.409 33.688 169.565 32.6771 169.877 31.7679C170.189 30.8587 170.633 30.0888 171.208 29.4581C171.783 28.8275 172.479 28.3381 173.291 27.9936C174.105 27.6473 175.012 27.4741 176.016 27.4741C177.018 27.4741 177.926 27.6473 178.74 27.9936C179.553 28.34 180.248 28.8275 180.824 29.4581C181.399 30.0888 181.843 30.8587 182.155 31.7679C182.467 32.6771 182.623 33.688 182.623 34.8005C182.623 35.9262 182.467 36.9408 182.155 37.8425C181.843 38.7442 181.399 39.5122 180.824 40.1428C180.248 40.7734 179.553 41.2628 178.74 41.6092C177.926 41.9556 177.018 42.1288 176.016 42.1288C175.014 42.1288 174.105 41.9556 173.291 41.6092C172.477 41.2628 171.783 40.7753 171.208 40.1428C170.633 39.5122 170.189 38.7442 169.877 37.8425C169.565 36.9408 169.409 35.9262 169.409 34.8005ZM188.164 27.7771H189.994V39.0133L197.171 27.7771H199V41.8219H197.171V30.6064L189.994 41.8219H188.164V27.7771ZM190.563 23.6245H192.088V23.8071C192.088 24.2269 192.224 24.5525 192.494 24.7841C192.765 25.0137 193.132 25.1305 193.592 25.1305C194.053 25.1305 194.42 25.0156 194.69 24.7841C194.961 24.5525 195.097 24.2269 195.097 23.8071V23.6245H196.621V23.8485C196.621 24.6768 196.351 25.3206 195.807 25.7818C195.266 26.243 194.527 26.4745 193.59 26.4745C192.654 26.4745 191.917 26.2448 191.374 25.7818C190.832 25.3206 190.56 24.6749 190.56 23.8485V23.6245H190.563Z" fill="#1D1D1B"/>
<path d="M0 41.0952L3.18514 41.0877L3.11745 27.5587C6.51883 23.1331 9.92208 18.7113 13.3253 14.2876L13.1523 42.3565L4.4844 42.3772L4.57089 59.703L16.7098 59.671L16.3619 0L28.2301 14.0278C28.2301 29.6633 28.232 45.2987 28.2357 60.9341C19.9194 60.9548 11.6011 60.9774 3.2848 61L3.19078 42.3809L0 42.3885V41.0952ZM4.47687 41.0839L11.8681 41.067L12.0092 18.1183L4.41107 27.9973L4.47687 41.0839ZM17.9996 59.6672L26.944 59.6428L26.9383 14.5041L17.6725 3.55402L17.9996 59.6672Z" fill="#1D1D1B"/>
</g>
<defs>
<clipPath id="clip0_18_22">
<rect width="199" height="61" fill="white"/>
</clipPath>
</defs>
</svg>
