<svg width="172" height="60" viewBox="0 0 172 60" fill="none" xmlns="http://www.w3.org/2000/svg">
<rect width="38" height="60" fill="#99A961"/>
<path d="M56.4941 37.5946H54.9677V27.5557H49.5263V37.5946H48V26.3127H56.4956V37.5946H56.4941ZM67.6127 34.4721H62.8203L61.683 37.5946H60.2048L64.4939 26.3127H66.0698L70.3589 37.5946H68.7499L67.6127 34.4721ZM63.2755 33.2125H67.1575L65.2075 27.9307L63.2755 33.2125ZM75.5974 37.5946H74.0711V26.3127H77.9365C79.1819 26.3127 80.1404 26.6242 80.812 27.2442C81.4835 27.8656 81.82 28.7427 81.82 29.8768C81.82 30.9987 81.485 31.8773 80.812 32.5093C80.1404 33.1414 79.1819 33.4574 77.9365 33.4574H75.5974V37.5946ZM75.5974 32.1661H77.8885C78.6682 32.1661 79.2631 31.9831 79.6747 31.6187C80.0863 31.2543 80.2922 30.6736 80.2922 29.8783C80.2922 29.0829 80.0893 28.5053 79.6822 28.1454C79.2766 27.7855 78.6772 27.6056 77.887 27.6056H75.5959V32.1661H75.5974ZM86.1467 26.3127H87.673V31.2664H88.3881C88.7787 31.2664 89.1062 31.2467 89.3706 31.2089C89.6365 31.1711 89.8634 31.097 90.0527 30.9882C90.242 30.8793 90.4042 30.7326 90.5394 30.5466C90.6746 30.3606 90.8083 30.1217 90.9375 29.8269L92.4639 26.3112H94.1375L92.2535 30.35C92.0703 30.7417 91.872 31.0502 91.6601 31.2739C91.4483 31.4977 91.1704 31.6686 90.8234 31.7896C91.214 31.9211 91.5354 32.1132 91.7893 32.3702C92.0432 32.6258 92.2791 32.9781 92.4954 33.4242L94.4604 37.5931H92.6742L91.1148 34.0457C90.9736 33.7402 90.8339 33.4847 90.6927 33.2775C90.5514 33.0703 90.3862 32.9101 90.1969 32.7951C90.0076 32.6802 89.7792 32.5986 89.5148 32.5502C89.2489 32.5018 88.9334 32.4761 88.5639 32.4761H87.67V37.5931H86.1437V26.3127H86.1467ZM98.9238 31.9544C98.9238 33.3818 99.2513 34.4887 99.9063 35.2735C100.561 36.0583 101.463 36.4499 102.61 36.4499C103.758 36.4499 104.66 36.0568 105.315 35.2735C105.97 34.4887 106.297 33.3818 106.297 31.9544C106.297 30.527 105.97 29.4201 105.315 28.6353C104.66 27.8505 103.758 27.4574 102.61 27.4574C101.463 27.4574 100.561 27.8505 99.9063 28.6353C99.2513 29.4201 98.9238 30.5255 98.9238 31.9544ZM97.3314 31.9544C97.3314 31.0607 97.4561 30.2487 97.7054 29.5184C97.9548 28.788 98.3094 28.1696 98.7691 27.663C99.2288 27.1565 99.7846 26.7633 100.434 26.4866C101.083 26.2084 101.808 26.0693 102.61 26.0693C103.411 26.0693 104.137 26.2084 104.787 26.4866C105.436 26.7648 105.992 27.1565 106.452 27.663C106.912 28.1696 107.266 28.788 107.516 29.5184C107.765 30.2487 107.89 31.0607 107.89 31.9544C107.89 32.8586 107.765 33.6737 107.516 34.398C107.266 35.1223 106.912 35.7392 106.452 36.2458C105.992 36.7523 105.436 37.1455 104.787 37.4237C104.137 37.7019 103.413 37.8411 102.61 37.8411C101.81 37.8411 101.084 37.7019 100.434 37.4237C99.7831 37.1455 99.2288 36.7538 98.7691 36.2458C98.3094 35.7392 97.9548 35.1223 97.7054 34.398C97.4561 33.6737 97.3314 32.8586 97.3314 31.9544ZM120.455 36.7281C120.064 37.0653 119.584 37.336 119.01 37.5371C118.436 37.7382 117.775 37.8395 117.028 37.8395C116.13 37.8395 115.35 37.6838 114.689 37.3738C114.028 37.0638 113.478 36.6404 113.041 36.1067C112.602 35.5729 112.278 34.9454 112.066 34.2271C111.854 33.5073 111.749 32.7392 111.749 31.9211C111.749 30.9942 111.877 30.1686 112.131 29.4443C112.385 28.72 112.748 28.1061 113.22 27.6056C113.692 27.1035 114.256 26.7225 114.917 26.4609C115.578 26.1993 116.315 26.0677 117.126 26.0677C117.808 26.0677 118.418 26.157 118.954 26.3369C119.49 26.5168 119.953 26.7648 120.342 27.0809L119.644 28.2255C119.297 27.9745 118.929 27.784 118.539 27.654C118.149 27.5239 117.7 27.4574 117.192 27.4574C115.98 27.4574 115.035 27.8445 114.357 28.6187C113.679 29.3929 113.341 30.4982 113.341 31.9378C113.341 33.3879 113.679 34.5023 114.357 35.281C115.033 36.0598 115.951 36.4499 117.111 36.4499C117.641 36.4499 118.126 36.3758 118.565 36.2291C119.004 36.0825 119.396 35.8662 119.743 35.5835L120.455 36.7281ZM128.845 27.6041V37.5946H127.319V27.6041H123.469V26.3127H132.663V27.6041H128.845ZM138.032 37.5946H136.506V26.3127H140.371C141.616 26.3127 142.575 26.6242 143.246 27.2442C143.918 27.8656 144.253 28.7427 144.253 29.8768C144.253 30.9987 143.918 31.8773 143.246 32.5093C142.575 33.1414 141.616 33.4574 140.371 33.4574H138.032V37.5946ZM138.032 32.1661H140.323C141.103 32.1661 141.698 31.9831 142.109 31.6187C142.521 31.2543 142.727 30.6736 142.727 29.8783C142.727 29.0829 142.524 28.5053 142.117 28.1454C141.711 27.7855 141.113 27.6056 140.321 27.6056H138.03V32.1661H138.032ZM149.443 31.9544C149.443 33.3818 149.771 34.4887 150.426 35.2735C151.081 36.0583 151.982 36.4499 153.13 36.4499C154.278 36.4499 155.179 36.0568 155.834 35.2735C156.489 34.4887 156.817 33.3818 156.817 31.9544C156.817 30.527 156.489 29.4201 155.834 28.6353C155.179 27.8505 154.278 27.4574 153.13 27.4574C151.982 27.4574 151.081 27.8505 150.426 28.6353C149.771 29.4201 149.443 30.5255 149.443 31.9544ZM147.851 31.9544C147.851 31.0607 147.976 30.2487 148.225 29.5184C148.475 28.788 148.829 28.1696 149.289 27.663C149.748 27.1565 150.304 26.7633 150.953 26.4866C151.604 26.2084 152.328 26.0693 153.13 26.0693C153.931 26.0693 154.657 26.2084 155.307 26.4866C155.956 26.7648 156.512 27.1565 156.972 27.663C157.431 28.1696 157.786 28.788 158.035 29.5184C158.285 30.2487 158.409 31.0607 158.409 31.9544C158.409 32.8586 158.285 33.6737 158.035 34.398C157.786 35.1223 157.431 35.7392 156.972 36.2458C156.512 36.7523 155.956 37.1455 155.307 37.4237C154.657 37.7019 153.931 37.8411 153.13 37.8411C152.329 37.8411 151.604 37.7019 150.953 37.4237C150.303 37.1455 149.748 36.7538 149.289 36.2458C148.829 35.7392 148.475 35.1223 148.225 34.398C147.976 33.6737 147.851 32.8586 147.851 31.9544ZM162.837 26.3127H164.298V35.3385L170.033 26.3127H171.494V37.5946H170.033V28.5854L164.298 37.5946H162.837V26.3127ZM164.754 22.977H165.972V23.1237C165.972 23.4609 166.08 23.7225 166.296 23.9085C166.513 24.0929 166.806 24.1867 167.174 24.1867C167.542 24.1867 167.835 24.0944 168.051 23.9085C168.267 23.7225 168.376 23.4609 168.376 23.1237V22.977H169.594V23.1569C169.594 23.8223 169.378 24.3394 168.943 24.7099C168.511 25.0803 167.92 25.2663 167.172 25.2663C166.424 25.2663 165.835 25.0819 165.401 24.7099C164.968 24.3394 164.751 23.8207 164.751 23.1569V22.977H164.754Z" fill="#1D1D1B"/>
<path d="M6 38.0109L8.54491 38.0049L8.49083 27.1373C11.2085 23.5823 13.9277 20.0304 16.6469 16.4769L16.5087 39.024L9.58301 39.0407L9.65212 52.9582L19.351 52.9324L19.0731 5L28.5557 16.2683C28.5557 28.8279 28.5572 41.3875 28.5602 53.9471C21.9155 53.9637 15.2693 53.9819 8.62454 54L8.54942 39.0437L6 39.0497V38.0109ZM9.577 38.0019L15.4826 37.9882L15.5953 19.5541L9.52442 27.4896L9.577 38.0019ZM20.3816 52.9294L27.5281 52.9098L27.5236 16.6508L20.1202 7.85487L20.3816 52.9294Z" fill="#1D1D1B"/>
</svg>
